<svg xmlns="http://www.w3.org/2000/svg" width="48" height="48" fill="none" viewBox="0 0 48 48" class="h-7 w-7"><path fill="#F3D382" fill-rule="evenodd" d="M21.508 8.933a2.952 2.952 0 100-5.903 2.952 2.952 0 000 5.903zm0 2.53a5.482 5.482 0 100-10.963 5.482 5.482 0 000 10.963z" clip-rule="evenodd"></path><path fill="#F3D382" d="M38.702 27.336A3.298 3.298 0 0142 30.634v7.345c0 1.646-1.092 2.974-2.446 2.974a4.15 4.15 0 01-4.15-4.151v-6.168a3.298 3.298 0 013.298-3.298zM3.298 27.336A3.298 3.298 0 000 30.634v7.345c0 1.646 1.092 2.974 2.446 2.974a4.15 4.15 0 004.15-4.151v-6.168a3.298 3.298 0 00-3.298-3.298z"></path><path fill="#FFE6A5" d="M37.64 15.468v25.144c0 2.3-1.864 4.165-4.164 4.165H8.746a4.165 4.165 0 01-4.165-4.165V15.468c0-5.738 4.652-10.39 10.39-10.39h12.28c5.738 0 10.39 4.652 10.39 10.39z"></path><path fill="#E18E1B" d="M17.625 17.506V33.05h-3.287V20.625h-.09l-3.56 2.232v-2.915l3.848-2.436h3.089zM26.56 33.392c-1.306-.005-2.43-.327-3.37-.964-.937-.638-1.658-1.561-2.164-2.77-.5-1.21-.749-2.665-.744-4.365 0-1.695.25-3.14.752-4.334.506-1.194 1.227-2.102 2.163-2.725.941-.627 2.062-.94 3.362-.94 1.3 0 2.419.313 3.355.94.941.628 1.665 1.539 2.17 2.733.507 1.189.757 2.631.752 4.326 0 1.705-.253 3.163-.759 4.372-.5 1.21-1.22 2.133-2.155 2.77-.937.638-2.057.957-3.363.957zm0-2.725c.89 0 1.6-.448 2.132-1.344.531-.895.794-2.239.79-4.03 0-1.179-.122-2.16-.365-2.945-.238-.784-.577-1.374-1.017-1.768a2.218 2.218 0 00-1.54-.592c-.886 0-1.595.442-2.126 1.328-.531.886-.8 2.211-.805 3.977 0 1.194.12 2.191.357 2.99.243.795.585 1.392 1.025 1.792.44.395.956.592 1.548.592z"></path></svg>