<svg xmlns="http://www.w3.org/2000/svg" width="48" height="48" fill="none" viewBox="0 0 48 48" class="h-7 w-7"><mask id="mask0_10618_74012" width="48" height="48" x="0" y="0" maskUnits="userSpaceOnUse" style="mask-type: alpha;"><path fill="#fff" d="M0 0H48V48H0z"></path></mask><g mask="url(#mask0_10618_74012)"><path fill="#82AEFB" fill-rule="evenodd" d="M24.51 9.933a2.952 2.952 0 10-.001-5.903 2.952 2.952 0 000 5.903zm0 2.53a5.482 5.482 0 100-10.963 5.482 5.482 0 000 10.963z" clip-rule="evenodd"></path><path fill="#82AEFB" d="M41.7 28.336A3.298 3.298 0 0145 31.635v7.345c0 1.646-1.092 2.974-2.446 2.974a4.15 4.15 0 01-4.15-4.151v-6.168a3.298 3.298 0 013.298-3.299zM6.298 28.336A3.298 3.298 0 003 31.635v7.345c0 1.646 1.092 2.974 2.446 2.974a4.15 4.15 0 004.15-4.151v-6.168a3.298 3.298 0 00-3.298-3.299z"></path><path fill="#ACCCFD" d="M40.64 16.469v25.143c0 2.3-1.864 4.165-4.164 4.165h-24.73a4.165 4.165 0 01-4.165-4.165V16.47c0-5.738 4.652-10.39 10.39-10.39h12.28c5.738 0 10.39 4.652 10.39 10.39z"></path><path fill="#2352D1" d="M24.475 34.263a7.022 7.022 0 01-2.315-.403 5.27 5.27 0 01-1.988-1.282c-.587-.593-1.053-1.377-1.397-2.353-.339-.977-.508-2.176-.508-3.598.005-1.306.154-2.472.447-3.5.299-1.031.724-1.907 1.276-2.625a5.582 5.582 0 011.996-1.64c.774-.38 1.642-.569 2.603-.569 1.038 0 1.953.202 2.748.607a5.06 5.06 0 011.913 1.632c.485.688.779 1.46.88 2.315h-3.241c-.127-.541-.392-.966-.797-1.275-.405-.309-.906-.463-1.503-.463-1.012 0-1.781.44-2.307 1.32-.521.881-.787 2.078-.797 3.59h.106c.233-.46.546-.852.941-1.176.4-.329.853-.58 1.359-.751a4.902 4.902 0 011.617-.266c.92 0 1.74.218 2.459.653a4.628 4.628 0 011.7 1.776c.415.754.622 1.617.622 2.588 0 1.053-.245 1.989-.736 2.808a5.104 5.104 0 01-2.042 1.928c-.87.46-1.882.689-3.036.684zm-.015-2.581a2.565 2.565 0 002.3-1.351c.228-.415.341-.88.341-1.397 0-.516-.113-.979-.341-1.389a2.525 2.525 0 00-2.277-1.344c-.38 0-.731.072-1.055.213-.319.142-.6.34-.843.592a2.844 2.844 0 00-.766 1.936c0 .5.114.959.341 1.374.233.415.547.746.942.994.4.248.852.372 1.358.372z"></path></g></svg>