<svg xmlns="http://www.w3.org/2000/svg" width="48" height="48" fill="none" viewBox="0 0 48 48" class="h-7 w-7"><mask id="mask0_10618_73989" width="48" height="48" x="0" y="0" maskUnits="userSpaceOnUse" style="mask-type: alpha;"><path fill="#fff" d="M0 0H48V48H0z"></path></mask><g mask="url(#mask0_10618_73989)"><path fill="#F3D382" fill-rule="evenodd" d="M24.51 9.933a2.952 2.952 0 10-.001-5.903 2.952 2.952 0 000 5.903zm0 2.53a5.482 5.482 0 100-10.963 5.482 5.482 0 000 10.963z" clip-rule="evenodd"></path><path fill="#F3D382" d="M41.7 27.745A3.298 3.298 0 0145 31.043v7.345c0 1.646-1.092 2.974-2.446 2.974a4.15 4.15 0 01-4.15-4.151v-6.168a3.298 3.298 0 013.298-3.298zM6.298 27.745A3.298 3.298 0 003 31.043v7.345c0 1.646 1.092 2.974 2.446 2.974a4.15 4.15 0 004.15-4.151v-6.168a3.298 3.298 0 00-3.298-3.298z"></path><path fill="#FFE6A5" d="M40.53 16.469v25.143c0 2.3-1.865 4.165-4.165 4.165h-24.73a4.165 4.165 0 01-4.165-4.165V16.47c0-5.738 4.651-10.39 10.39-10.39h12.28c5.738 0 10.39 4.652 10.39 10.39z"></path><path fill="#E3972C" d="M19.33 33.837l6.443-12.75v-.107h-7.506v-2.687h10.907v2.725l-6.452 12.82h-3.393z"></path></g></svg>