<svg xmlns="http://www.w3.org/2000/svg" width="48" height="48" fill="none" viewBox="0 0 48 48" class="h-7 w-7"><mask id="mask0_10618_73965" width="48" height="48" x="0" y="0" maskUnits="userSpaceOnUse" style="mask-type: alpha;"><path fill="#fff" d="M0 0H48V48H0z"></path></mask><g mask="url(#mask0_10618_73965)"><path fill="#FBB986" fill-rule="evenodd" d="M24.51 9.933a2.952 2.952 0 10-.001-5.903 2.952 2.952 0 000 5.903zm0 2.53a5.482 5.482 0 100-10.963 5.482 5.482 0 000 10.963z" clip-rule="evenodd"></path><path fill="#FBB986" d="M41.7 28.336A3.298 3.298 0 0145 31.635v7.345c0 1.646-1.092 2.974-2.446 2.974a4.15 4.15 0 01-4.15-4.151v-6.168a3.298 3.298 0 013.298-3.299zM6.298 28.336A3.298 3.298 0 003 31.635v7.345c0 1.646 1.092 2.974 2.446 2.974a4.15 4.15 0 004.15-4.151v-6.168a3.298 3.298 0 00-3.298-3.299z"></path><path fill="#FDD6AF" d="M40.64 16.469v25.143c0 2.3-1.864 4.165-4.164 4.165h-24.73a4.165 4.165 0 01-4.165-4.165V16.47c0-5.738 4.652-10.39 10.39-10.39h12.28c5.738 0 10.39 4.652 10.39 10.39z"></path><path fill="#D04F28" d="M24.293 34.263c-1.169 0-2.209-.19-3.12-.57-.905-.384-1.616-.908-2.132-1.57a3.573 3.573 0 01-.774-2.255c0-.648.146-1.242.44-1.784.298-.546.703-1 1.214-1.358a4.003 4.003 0 011.716-.699v-.106c-.83-.167-1.503-.57-2.02-1.207a3.472 3.472 0 01-.774-2.239c0-.804.236-1.52.706-2.148.47-.632 1.116-1.128 1.936-1.488.825-.364 1.76-.546 2.808-.546 1.048 0 1.981.182 2.8.547.826.364 1.473.862 1.944 1.495.47.627.708 1.34.713 2.14-.005.855-.268 1.602-.789 2.24a3.393 3.393 0 01-2.004 1.206v.106a3.938 3.938 0 011.693.699c.51.359.916.812 1.214 1.358.304.542.458 1.136.463 1.784a3.61 3.61 0 01-.782 2.254c-.516.663-1.23 1.187-2.14 1.571-.906.38-1.943.57-3.112.57zm0-2.414c.521 0 .977-.094 1.366-.281.39-.192.694-.455.911-.79.223-.338.334-.728.334-1.168 0-.45-.114-.848-.341-1.192a2.348 2.348 0 00-.926-.82c-.39-.202-.838-.303-1.344-.303-.5 0-.949.101-1.343.303-.395.198-.706.471-.934.82a2.145 2.145 0 00-.334 1.192c0 .44.109.83.327 1.169.217.334.523.597.918.789.395.187.85.28 1.366.28zm0-6.945a2.47 2.47 0 001.161-.266 2 2 0 00.797-.736c.193-.314.289-.675.289-1.085a1.944 1.944 0 00-1.078-1.784c-.334-.177-.724-.266-1.169-.266-.44 0-.83.089-1.169.266-.339.172-.604.412-.797.721-.187.304-.28.658-.28 1.063 0 .41.096.771.288 1.085a2 2 0 00.797.736 2.47 2.47 0 001.161.266z"></path></g></svg>