<svg xmlns="http://www.w3.org/2000/svg" width="48" height="48" fill="none" viewBox="0 0 48 48" class="h-7 w-7"><mask id="mask0_10618_73943" width="48" height="48" x="0" y="0" maskUnits="userSpaceOnUse" style="mask-type: alpha;"><path fill="#fff" d="M0 0H48V48H0z"></path></mask><g mask="url(#mask0_10618_73943)"><path fill="#67D6C5" fill-rule="evenodd" d="M24.51 9.933a2.952 2.952 0 100-5.903 2.952 2.952 0 000 5.903zm0 2.53a5.482 5.482 0 100-10.963 5.482 5.482 0 000 10.963z" clip-rule="evenodd"></path><path fill="#67D6C5" d="M41.7 27.745A3.298 3.298 0 0145 31.043v7.345c0 1.646-1.092 2.974-2.446 2.974a4.15 4.15 0 01-4.15-4.151v-6.168a3.298 3.298 0 013.298-3.298zM6.298 27.745A3.298 3.298 0 003 31.043v7.345c0 1.646 1.092 2.974 2.446 2.974a4.15 4.15 0 004.15-4.151v-6.168a3.298 3.298 0 00-3.298-3.298z"></path><path fill="#89EAD3" d="M40.53 16.469v25.143c0 2.3-1.865 4.165-4.165 4.165h-24.73a4.165 4.165 0 01-4.165-4.165V16.47c0-5.738 4.651-10.39 10.39-10.39h12.28c5.738 0 10.39 4.652 10.39 10.39z"></path><path fill="#1D7A87" d="M24.073 18.293c.8 0 1.569.134 2.308.402a5.314 5.314 0 011.988 1.283c.587.587 1.05 1.366 1.39 2.338.343.966.518 2.153.523 3.56 0 1.32-.15 2.5-.448 3.537-.293 1.032-.716 1.91-1.267 2.633a5.54 5.54 0 01-1.997 1.655c-.779.374-1.65.562-2.61.562-1.038 0-1.954-.2-2.748-.6a5.16 5.16 0 01-1.92-1.647 5.128 5.128 0 01-.873-2.353h3.24c.127.567.393 1.007.797 1.32.405.31.906.464 1.503.464 1.012 0 1.781-.44 2.308-1.32.526-.886.792-2.098.797-3.637h-.107a3.723 3.723 0 01-.94 1.177 4.385 4.385 0 01-1.36.751 4.859 4.859 0 01-1.616.266c-.916 0-1.733-.215-2.452-.645a4.629 4.629 0 01-1.7-1.776c-.415-.754-.622-1.615-.622-2.581-.005-1.042.235-1.97.72-2.785a5.08 5.08 0 012.035-1.913c.875-.466 1.892-.696 3.051-.69zm.023 2.58c-.511 0-.967.122-1.366.365a2.69 2.69 0 00-.942.98c-.227.409-.338.867-.334 1.373 0 .511.112.971.334 1.381.228.405.537.729.927.972.394.238.845.357 1.35.357a2.603 2.603 0 001.898-.797 2.8 2.8 0 00.57-.873 2.797 2.797 0 00-.144-2.399 2.668 2.668 0 00-.942-.986 2.51 2.51 0 00-1.351-.372z"></path></g></svg>