<svg xmlns="http://www.w3.org/2000/svg" width="48" height="48" fill="none" viewBox="0 0 27 27" class="h-7 w-7"><mask id="mask0_19054_48978" width="27" height="27" x="0" y="0" maskUnits="userSpaceOnUse" style="mask-type: alpha;"><path fill="#fff" d="M0.529 0.443H26.674V26.588H0.529z"></path></mask><g mask="url(#mask0_19054_48978)"><path fill="#FF9D99" fill-rule="evenodd" d="M13.39 5.854a1.608 1.608 0 100-3.216 1.608 1.608 0 000 3.216zm0 1.378a2.986 2.986 0 100-5.972 2.986 2.986 0 000 5.972z" clip-rule="evenodd"></path><path fill="#FF9D99" d="M23.242 15.877c.993 0 1.797.805 1.797 1.797v4.001c0 .897-.595 1.62-1.332 1.62a2.261 2.261 0 01-2.261-2.261v-3.36c0-.992.804-1.797 1.796-1.797zM3.957 15.878c-.992 0-1.796.804-1.796 1.797v4c0 .897.594 1.62 1.332 1.62a2.261 2.261 0 002.26-2.26v-3.36c0-.993-.803-1.797-1.796-1.797z"></path><path fill="#FFC6C6" d="M22.603 9.738v13.696a2.269 2.269 0 01-2.269 2.269H6.864a2.269 2.269 0 01-2.27-2.269V9.738a5.66 5.66 0 015.66-5.66h6.69a5.66 5.66 0 015.659 5.66z"></path><path fill="#A51E35" d="M10.404 19.109v-8.392h1.775v3.462h3.601v-3.462h1.77v8.392h-1.77v-3.467H12.18v3.467h-1.775z"></path></g></svg>