<svg width="40" height="42" viewBox="0 0 40 42" fill="none" xmlns="http://www.w3.org/2000/svg">
<path d="M33.5521 3.34127L21.5195 4.78458C20.1905 4.944 19.2423 6.15067 19.4017 7.47975L20.845 19.5123C21.0044 20.8414 22.2111 21.7896 23.5402 21.6301L35.5727 20.1868C36.9018 20.0274 37.85 18.8207 37.6906 17.4916L36.2472 5.45911C36.0878 4.13003 34.8812 3.18184 33.5521 3.34127Z" fill="#FFCD01"/>
<path d="M34.8541 3.54866C32.7198 10.7924 27.8879 16.9414 21.3544 20.7283C21.6112 21.053 21.9469 21.3063 22.3295 21.4641C22.7121 21.622 23.1288 21.679 23.5398 21.6299L35.5723 20.1866C36.2106 20.11 36.7923 19.783 37.1894 19.2776C37.5866 18.7722 37.7667 18.1296 37.6902 17.4914L36.2469 5.45885C36.1975 5.04792 36.0435 4.65653 35.7996 4.3221C35.5558 3.98767 35.2302 3.72137 34.8541 3.54866Z" fill="#FFBA01"/>
<path d="M14.4913 3.96041L2.45875 5.40372C1.12968 5.56314 0.181485 6.76981 0.340909 8.09889L1.78422 20.1314C1.94365 21.4605 3.15031 22.4087 4.47939 22.2493L16.5119 20.806C17.841 20.6465 18.7892 19.4399 18.6298 18.1108L17.1865 6.07825C17.027 4.74917 15.8204 3.80098 14.4913 3.96041Z" fill="#8726E2"/>
<path d="M15.7938 4.1678C13.6595 11.4116 8.82763 17.5606 2.29411 21.3475C2.55087 21.6721 2.88661 21.9255 3.26922 22.0833C3.65184 22.2411 4.06854 22.2982 4.4795 22.249L16.512 20.8057C17.1503 20.7291 17.732 20.4022 18.1291 19.8967C18.5263 19.3913 18.7064 18.7488 18.6299 18.1105L17.1866 6.07799C17.1372 5.66706 16.9832 5.27567 16.7393 4.94124C16.4955 4.60681 16.1699 4.34051 15.7938 4.1678V4.1678Z" fill="#691DAF"/>
<path d="M35.5726 20.187L23.5401 21.6303C22.211 21.7897 21.2628 22.9964 21.4222 24.3255L22.8655 36.358C23.0249 37.6871 24.2316 38.6353 25.5607 38.4758L37.5932 37.0325C38.9223 36.8731 39.8705 35.6664 39.7111 34.3373L38.2678 22.3048C38.1083 20.9757 36.9017 20.0275 35.5726 20.187Z" fill="#DC4C12"/>
<path d="M36.8753 20.3944C34.741 27.6381 29.9092 33.7871 23.3757 37.5741C23.6324 37.8987 23.9682 38.152 24.3508 38.3098C24.7334 38.4677 25.1501 38.5247 25.561 38.4756L37.5936 37.0323C38.2318 36.9557 38.8135 36.6287 39.2107 36.1233C39.6079 35.6178 39.788 34.9753 39.7114 34.3371L38.2681 22.3046C38.2187 21.8936 38.0647 21.5022 37.8209 21.1678C37.577 20.8334 37.2515 20.5671 36.8753 20.3944V20.3944Z" fill="#A4390D"/>
<path d="M18.7269 22.2075L6.69435 23.6508C5.36527 23.8102 4.41708 25.0169 4.5765 26.346L6.01982 38.3785C6.17924 39.7076 7.38591 40.6558 8.71499 40.4963L20.7475 39.053C22.0766 38.8936 23.0248 37.6869 22.8654 36.3579L21.4221 24.3253C21.2626 22.9962 20.056 22.0481 18.7269 22.2075Z" fill="#48BDFF"/>
<path d="M20.0296 22.4149C17.8953 29.6586 13.0635 35.8076 6.52995 39.5946C6.78671 39.9192 7.12245 40.1725 7.50506 40.3304C7.88768 40.4882 8.30438 40.5453 8.71534 40.4961L20.7479 39.0528C21.3861 38.9762 21.9678 38.6492 22.365 38.1438C22.7622 37.6384 22.9423 36.9958 22.8657 36.3576L21.4224 24.3251C21.373 23.9141 21.219 23.5227 20.9752 23.1883C20.7313 22.8539 20.4058 22.5876 20.0296 22.4149V22.4149Z" fill="#3BA4F2"/>
<path d="M27.9449 34.9222L26.8251 25.5869L33.3342 24.8062L33.554 26.6386L29.3012 27.1487L29.5309 29.0632L33.4509 28.5929L33.6713 30.4299L29.7512 30.9001L29.9814 32.8191L34.2342 32.309L34.454 34.1414L27.9449 34.9222Z" fill="white"/>
<path d="M26.9087 17.9612L24.4838 18.2521L26.5137 8.53904L29.5176 8.17872L33.7871 17.1362L31.3621 17.427L28.332 10.7068L28.259 10.7156L26.9087 17.9612ZM26.1444 14.3261L31.2132 13.7181L31.4188 15.432L26.35 16.04L26.1444 14.3261Z" fill="white"/>
<path d="M8.48695 28.0342L11.2812 27.699L14.3447 33.1946L14.4541 33.1814L16.1311 27.1173L18.9253 26.7821L20.0451 36.1174L17.848 36.3809L17.1602 30.6467L17.0827 30.656L15.5208 36.6L14.1168 36.7684L11.1896 31.3305L11.1121 31.3398L11.8038 37.1059L9.60673 37.3695L8.48695 28.0342Z" fill="white"/>
<path d="M11.2626 11.6289C11.1879 11.4436 11.0917 11.2841 10.974 11.1503C10.8558 11.0134 10.7176 10.902 10.5594 10.8162C10.4011 10.7304 10.2247 10.673 10.0301 10.6439C9.83509 10.6118 9.62517 10.6092 9.40029 10.6362C8.94751 10.6905 8.56862 10.8469 8.26363 11.1055C7.96168 11.3636 7.74621 11.7131 7.61722 12.154C7.48787 12.5918 7.45891 13.1086 7.53036 13.7042C7.60217 14.3028 7.75001 14.803 7.97389 15.2046C8.19777 15.6062 8.48712 15.8982 8.84192 16.0807C9.19672 16.2632 9.60812 16.3263 10.0761 16.2702C10.4894 16.2206 10.8308 16.1119 11.1004 15.9439C11.3727 15.7725 11.5684 15.5533 11.6874 15.2863C11.8064 15.0192 11.8457 14.717 11.8052 14.3797L12.2306 14.3796L9.96058 14.6519L9.7632 13.0063L13.7881 12.5235L13.9363 13.7588C14.0366 14.5945 13.9446 15.3315 13.6605 15.9697C13.3795 16.6076 12.9481 17.1233 12.3665 17.5167C11.7878 17.9098 11.0974 18.1545 10.2952 18.2507C9.40478 18.3575 8.59913 18.2584 7.87822 17.9534C7.1573 17.6484 6.56561 17.1614 6.10313 16.4925C5.64029 15.8205 5.34982 14.9922 5.23172 14.0076C5.13986 13.2418 5.17235 12.549 5.32918 11.9291C5.48565 11.3061 5.7427 10.7636 6.10033 10.3015C6.461 9.83898 6.89751 9.46912 7.40987 9.19188C7.92527 8.91428 8.49445 8.73811 9.11741 8.66339C9.65833 8.5985 10.1706 8.61567 10.6541 8.71488C11.1407 8.81373 11.5802 8.98295 11.9727 9.22255C12.3682 9.46178 12.7017 9.7624 12.9732 10.1244C13.2448 10.4864 13.4358 10.8966 13.5462 11.355L11.2626 11.6289Z" fill="white"/>
</svg>
