<svg xmlns="http://www.w3.org/2000/svg" width="24" height="24" fill="none" viewBox="0 0 24 24" class="w-[20px] h-[20px] mr-4"><path fill="#0FD8DE" d="M12.012 7.98a.34.34 0 01.357 0l9.954 6.116a.34.34 0 010 .58l-9.954 6.116a.341.341 0 01-.357 0l-9.955-6.115a.34.34 0 010-.581l9.955-6.115z"></path><path fill="#2696FF" d="M12.012 3.208a.34.34 0 01.356 0l9.955 6.115a.34.34 0 010 .581l-9.955 6.115a.34.34 0 01-.356 0L2.057 9.904a.34.34 0 010-.58l9.955-6.116z"></path><path fill="#0C7EE9" d="M18.912 12l-6.722 4.129L5.47 12l6.721-4.129L18.912 12z"></path></svg>